<svg xmlns="http://www.w3.org/2000/svg" xmlns:xlink="http://www.w3.org/1999/xlink" version="1.1" width="22.484806060791016" height="23.51263427734375" viewBox="0.4924837350845337 -0.013565778732299805 22.484806060791016 23.51263427734375">
  <defs>
    <linearGradient id="grad_1" x2="1">
      <stop offset="0" stop-color="#00CC44" stop-opacity="1"/>
      <stop offset="1" stop-color="#00FF55" stop-opacity="1"/>
    </linearGradient>
    <linearGradient id="grad_2" x2="1">
      <stop offset="0" stop-color="#00CC44" stop-opacity="1"/>
      <stop offset="1" stop-color="#00FF55" stop-opacity="1"/>
    </linearGradient>
  <linearGradient id="grad_1-,0,0,1,-226.7,-159.7" x2="21.9773" x1="1.4925" y1="0.9864" y2="0.9864" gradientUnits="userSpaceOnUse">
      <stop offset="0" stop-color="#00CC44" stop-opacity="1"/>
      <stop offset="1" stop-color="#00FF55" stop-opacity="1"/>
    </linearGradient></defs>
  <!-- Exported by Scratch - http://scratch.mit.edu/ -->
  <path id="ID0.17864482337608933" fill="url(#grad_1-,0,0,1,-226.7,-159.7)" stroke="url(#grad_2)" stroke-width="2" stroke-linecap="round" d="M 4.5 5.2 C 5.078 3.994 7.736 6.055 9.3 5.9 C 10.146 5.816 11.275 5.152 11.3 4.3 C 11.337 3.026 8.632 1.482 9.4 1.2 C 10.707 0.582 13.703 1.394 15.45 2.5 C 17.671 3.905 19.819 6.205 20.9 8.2 C 21.855 9.901 22.346 12.311 21.65 14.2 C 20.699 16.78 18.558 19.039 16.3 20.7 C 14.793 21.803 11.724 23.094 10.65 22.2 C 9.703 21.407 13.364 18.121 12.4 17.6 C 11.099 16.896 7.486 20.248 6 19.7 C 5.082 19.352 8.606 16.853 7.8 15.6 C 6.551 13.65 1.757 14.071 1.5 13.1 C 1.276 12.1 6.128 13.216 6.8 11.5 C 7.635 9.369 3.828 6.794 4.5 5.2 Z " style="stroke-linejoin: round; stroke-linecap: round;"/>
</svg>