<svg xmlns="http://www.w3.org/2000/svg" xmlns:xlink="http://www.w3.org/1999/xlink" version="1.1" width="485.92339928431875" height="427.6838057784594" viewBox="18.106144748709767 17.958344303153126 485.92339928431875 427.6838057784594">
  <!-- Exported by Scratch - http://scratch.mit.edu/ -->
  <g id="ID0.5646871998906136">
    <path id="ID0.29745785566046834" fill="#FFFF00" stroke="#FF9400" stroke-width="17.783109977678123" stroke-linecap="round" d="M 191.4914 197.5677 L 124.8048 112.2088 L 216.8324 172.2268 L 246.1745 26.8499 L 282.6299 173.5605 L 385.7719 124.657 L 310.1937 196.6786 L 495.138 230.0219 L 315.9732 264.2544 L 387.1056 363.3952 L 283.519 280.2592 L 241.7287 436.7506 L 224.8348 283.3712 L 109.2446 354.5037 L 195.9372 262.4761 L 26.9977 233.134 L 191.4914 197.5677 Z "/>
    <path id="ID0.29745785566046834" fill="#FFFF00" stroke="#FF9400" stroke-width="8.289727798520035" stroke-linecap="round" d="M 229.8437 200.5668 L 217.6247 151.5733 L 245.4395 194.5785 L 285.4939 138.2287 L 273.208 207.6195 L 326.4038 206.3449 L 280.5643 222.69 L 353.0063 271.949 L 270.2156 252.5643 L 281.7153 308.2699 L 253.3603 253.2281 L 205.8976 311.9515 L 227.7783 243.4289 L 165.0673 251.8104 L 219.4326 229.0523 L 153.0481 184.5312 L 229.8437 200.5668 Z "/>
  </g>
</svg>